<svg id="visual" viewBox="0 0 960 540" width="960" height="540" xmlns="http://www.w3.org/2000/svg" xmlns:xlink="http://www.w3.org/1999/xlink" version="1.1"><g><g transform="translate(656 196)"><path d="M0 -126.9L81.6 -97.2L125 -22L109.9 63.4L43.4 119.2L-43.4 119.2L-109.9 63.4L-125 -22L-81.6 -97.2Z" fill="#001e54"></path></g><g transform="translate(918 275)"><path d="M0 -37L23.8 -28.3L36.4 -6.4L32 18.5L12.7 34.8L-12.7 34.8L-32 18.5L-36.4 -6.4L-23.8 -28.3Z" fill="#001e54"></path></g><g transform="translate(501 482)"><path d="M0 -22L14.1 -16.9L21.7 -3.8L19.1 11L7.5 20.7L-7.5 20.7L-19.1 11L-21.7 -3.8L-14.1 -16.9Z" fill="#001e54"></path></g><g transform="translate(76 280)"><path d="M0 -44L28.3 -33.7L43.3 -7.6L38.1 22L15 41.3L-15 41.3L-38.1 22L-43.3 -7.6L-28.3 -33.7Z" fill="#001e54"></path></g><g transform="translate(154 536)"><path d="M0 -62L39.9 -47.5L61.1 -10.8L53.7 31L21.2 58.3L-21.2 58.3L-53.7 31L-61.1 -10.8L-39.9 -47.5Z" fill="#001e54"></path></g><g transform="translate(370 146)"><path d="M0 -66L42.4 -50.6L65 -11.5L57.2 33L22.6 62L-22.6 62L-57.2 33L-65 -11.5L-42.4 -50.6Z" fill="#001e54"></path></g><g transform="translate(841 10)"><path d="M0 -97L62.4 -74.3L95.5 -16.8L84 48.5L33.2 91.2L-33.2 91.2L-84 48.5L-95.5 -16.8L-62.4 -74.3Z" fill="#001e54"></path></g><g transform="translate(820 532)"><path d="M0 -31L19.9 -23.7L30.5 -5.4L26.8 15.5L10.6 29.1L-10.6 29.1L-26.8 15.5L-30.5 -5.4L-19.9 -23.7Z" fill="#001e54"></path></g></g></svg>