<svg id="visual" viewBox="0 0 960 540" width="960" height="540" xmlns="http://www.w3.org/2000/svg" xmlns:xlink="http://www.w3.org/1999/xlink" version="1.1"><path d="M0 240L137 240L137 300L274 300L274 257L411 257L411 327L549 327L549 249L686 249L686 276L823 276L823 307L960 307L960 236L960 541L960 541L823 541L823 541L686 541L686 541L549 541L549 541L411 541L411 541L274 541L274 541L137 541L137 541L0 541Z" fill="#009393"></path><path d="M0 385L137 385L137 371L274 371L274 410L411 410L411 319L549 319L549 390L686 390L686 373L823 373L823 390L960 390L960 316L960 541L960 541L823 541L823 541L686 541L686 541L549 541L549 541L411 541L411 541L274 541L274 541L137 541L137 541L0 541Z" fill="#007a83"></path><path d="M0 399L137 399L137 426L274 426L274 448L411 448L411 413L549 413L549 452L686 452L686 435L823 435L823 455L960 455L960 409L960 541L960 541L823 541L823 541L686 541L686 541L549 541L549 541L411 541L411 541L274 541L274 541L137 541L137 541L0 541Z" fill="#016170"></path></svg>