<svg id="visual" viewBox="0 0 1920 500" width="1920" height="500" xmlns="http://www.w3.org/2000/svg" xmlns:xlink="http://www.w3.org/1999/xlink" version="1.1"><path d="M0 222L274 222L274 278L549 278L549 238L823 238L823 302L1097 302L1097 231L1371 231L1371 256L1646 256L1646 284L1920 284L1920 218L1920 501L1920 501L1646 501L1646 501L1371 501L1371 501L1097 501L1097 501L823 501L823 501L549 501L549 501L274 501L274 501L0 501Z" fill="#009393"></path><path d="M0 356L274 356L274 343L549 343L549 379L823 379L823 295L1097 295L1097 361L1371 361L1371 345L1646 345L1646 361L1920 361L1920 293L1920 501L1920 501L1646 501L1646 501L1371 501L1371 501L1097 501L1097 501L823 501L823 501L549 501L549 501L274 501L274 501L0 501Z" fill="#007a83"></path><path d="M0 369L274 369L274 395L549 395L549 415L823 415L823 382L1097 382L1097 419L1371 419L1371 403L1646 403L1646 421L1920 421L1920 378L1920 501L1920 501L1646 501L1646 501L1371 501L1371 501L1097 501L1097 501L823 501L823 501L549 501L549 501L274 501L274 501L0 501Z" fill="#016170"></path></svg>